<svg width="32" height="32" viewBox="0 0 32 32" fill="none" xmlns="http://www.w3.org/2000/svg">
<path d="M13.3214 18.6429C13.3214 20.0214 12.3214 20.4571 11.0929 20.4571H7.87143V16.6786H11.1571C12.4857 16.6857 13.3214 17.2357 13.3214 18.6429ZM12.7714 12.7643C12.7714 11.5 11.7929 11.2 10.7071 11.2H7.87857V14.4H10.9286C12.0071 14.4 12.7714 13.9286 12.7714 12.7643ZM22.2214 14.4214C20.9143 14.4214 20.0429 15.2357 19.9571 16.5429H24.4C24.2786 15.2214 23.5929 14.4214 22.2214 14.4214ZM32 3.42857V28.5714C32 30.4643 30.4643 32 28.5714 32H3.42857C1.53571 32 0 30.4643 0 28.5714V3.42857C0 1.53571 1.53571 0 3.42857 0H28.5714C30.4643 0 32 1.53571 32 3.42857ZM19.4071 10.9286H24.9643V9.57857H19.4071V10.9286ZM16.3357 18.8071C16.3357 17.0857 15.5214 15.6 13.8357 15.1214C15.0643 14.5357 15.7071 13.8571 15.7071 12.4786C15.7071 9.75 13.6714 9.08571 11.3214 9.08571H4.85714V22.8H11.5071C14 22.7857 16.3357 21.5929 16.3357 18.8071ZM27.1429 17.75C27.1429 14.8143 25.4214 12.3643 22.3143 12.3643C19.2857 12.3643 17.2357 14.6357 17.2357 17.6214C17.2357 20.7143 19.1857 22.8357 22.3143 22.8357C24.6857 22.8357 26.2214 21.7714 26.9643 19.4929H24.5571C24.2929 20.3429 23.2286 20.7857 22.4 20.7857C20.8 20.7857 19.9643 19.85 19.9643 18.2643H27.1214C27.1286 18.1 27.1429 17.9214 27.1429 17.75Z" fill="#6158EF"/>
</svg>
