<svg width="32" height="32" viewBox="0 0 32 32" fill="none" xmlns="http://www.w3.org/2000/svg">
<path d="M10.667 22.6667L16.0003 28L21.3337 22.6667" stroke="#524BCB" stroke-width="2" stroke-linecap="round" stroke-linejoin="round"/>
<path d="M16 16V28" stroke="#524BCB" stroke-width="2" stroke-linecap="round" stroke-linejoin="round"/>
<path d="M27.8399 24.12C28.9991 23.3048 29.8684 22.1415 30.3216 20.7988C30.7749 19.4562 30.7885 18.004 30.3604 16.6531C29.9324 15.3021 29.0851 14.1228 27.9413 13.2861C26.7976 12.4493 25.417 11.9989 23.9999 12H22.3199C21.9189 10.4371 21.1686 8.98564 20.1254 7.75475C19.0822 6.52386 17.7734 5.54565 16.2975 4.89378C14.8216 4.2419 13.217 3.93334 11.6046 3.99133C9.99219 4.04931 8.41393 4.47233 6.98865 5.22854C5.56337 5.98475 4.32821 7.05444 3.37616 8.35708C2.42411 9.65972 1.77998 11.1614 1.49226 12.749C1.20454 14.3366 1.28072 15.9688 1.71508 17.5227C2.14944 19.0766 2.93066 20.5117 3.99991 21.72" stroke="#524BCB" stroke-width="2" stroke-linecap="round" stroke-linejoin="round"/>
</svg>
