<svg width="32" height="32" viewBox="0 0 32 32" fill="none" xmlns="http://www.w3.org/2000/svg">
<path d="M21.3337 29.369V24.209C21.3837 23.5733 21.2978 22.9341 21.0817 22.3341C20.8656 21.7341 20.5242 21.1869 20.0803 20.729C24.267 20.2624 28.667 18.6757 28.667 11.3957C28.6667 9.53414 27.9506 7.74397 26.667 6.3957C27.2748 4.76705 27.2318 2.96684 26.547 1.36904C26.547 1.36904 24.9737 0.90237 21.3337 3.34237C18.2777 2.51413 15.0563 2.51413 12.0003 3.34237C8.36033 0.90237 6.78699 1.36904 6.78699 1.36904C6.10216 2.96684 6.05918 4.76705 6.66699 6.3957C5.37383 7.75397 4.65702 9.56032 4.66699 11.4357C4.66699 18.6624 9.06699 20.249 13.2537 20.769C12.815 21.2223 12.4767 21.7629 12.2607 22.3556C12.0448 22.9483 11.9561 23.5798 12.0003 24.209V29.369M12.0003 25.369C5.33366 27.369 5.33366 22.0357 2.66699 21.369L12.0003 25.369Z" stroke="#524BCB" stroke-width="2" stroke-linecap="round" stroke-linejoin="round"/>
</svg>
