<svg width="31" height="31" viewBox="0 0 31 31" fill="none" xmlns="http://www.w3.org/2000/svg">
<path d="M10.3687 24.3375C10.3687 24.4625 10.225 24.5625 10.0437 24.5625C9.8375 24.5812 9.69375 24.4812 9.69375 24.3375C9.69375 24.2125 9.8375 24.1125 10.0188 24.1125C10.2063 24.0938 10.3687 24.1938 10.3687 24.3375ZM8.425 24.0562C8.38125 24.1812 8.50625 24.325 8.69375 24.3625C8.85625 24.425 9.04375 24.3625 9.08125 24.2375C9.11875 24.1125 9 23.9688 8.8125 23.9125C8.65 23.8687 8.46875 23.9312 8.425 24.0562ZM11.1875 23.95C11.0063 23.9938 10.8812 24.1125 10.9 24.2563C10.9187 24.3813 11.0813 24.4625 11.2688 24.4188C11.45 24.375 11.575 24.2563 11.5562 24.1313C11.5375 24.0125 11.3687 23.9313 11.1875 23.95ZM15.3 0C6.63125 0 0 6.58125 0 15.25C0 22.1812 4.3625 28.1125 10.5938 30.2C11.3938 30.3438 11.675 29.85 11.675 29.4438C11.675 29.0562 11.6562 26.9188 11.6562 25.6063C11.6562 25.6063 7.28125 26.5437 6.3625 23.7437C6.3625 23.7437 5.65 21.925 4.625 21.4562C4.625 21.4562 3.19375 20.475 4.725 20.4937C4.725 20.4937 6.28125 20.6188 7.1375 22.1063C8.50625 24.5188 10.8 23.825 11.6938 23.4125C11.8375 22.4125 12.2438 21.7188 12.6938 21.3062C9.2 20.9187 5.675 20.4125 5.675 14.4C5.675 12.6812 6.15 11.8188 7.15 10.7188C6.9875 10.3125 6.45625 8.6375 7.3125 6.475C8.61875 6.06875 11.625 8.1625 11.625 8.1625C12.875 7.8125 14.2188 7.63125 15.55 7.63125C16.8813 7.63125 18.225 7.8125 19.475 8.1625C19.475 8.1625 22.4813 6.0625 23.7875 6.475C24.6438 8.64375 24.1125 10.3125 23.95 10.7188C24.95 11.825 25.5625 12.6875 25.5625 14.4C25.5625 20.4312 21.8813 20.9125 18.3875 21.3062C18.9625 21.8 19.45 22.7375 19.45 24.2062C19.45 26.3125 19.4312 28.9187 19.4312 29.4312C19.4312 29.8375 19.7188 30.3312 20.5125 30.1875C26.7625 28.1125 31 22.1812 31 15.25C31 6.58125 23.9688 0 15.3 0ZM6.075 21.5562C5.99375 21.6187 6.0125 21.7625 6.11875 21.8813C6.21875 21.9813 6.3625 22.025 6.44375 21.9438C6.525 21.8813 6.50625 21.7375 6.4 21.6187C6.3 21.5187 6.15625 21.475 6.075 21.5562ZM5.4 21.05C5.35625 21.1312 5.41875 21.2313 5.54375 21.2938C5.64375 21.3563 5.76875 21.3375 5.8125 21.25C5.85625 21.1688 5.79375 21.0688 5.66875 21.0063C5.54375 20.9688 5.44375 20.9875 5.4 21.05ZM7.425 23.275C7.325 23.3562 7.3625 23.5438 7.50625 23.6625C7.65 23.8062 7.83125 23.825 7.9125 23.725C7.99375 23.6438 7.95625 23.4562 7.83125 23.3375C7.69375 23.1938 7.50625 23.175 7.425 23.275ZM6.7125 22.3563C6.6125 22.4188 6.6125 22.5813 6.7125 22.725C6.8125 22.8687 6.98125 22.9312 7.0625 22.8687C7.1625 22.7875 7.1625 22.625 7.0625 22.4813C6.975 22.3375 6.8125 22.275 6.7125 22.3563Z" fill="#6158EF"/>
</svg>
