<svg width="28" height="28" viewBox="0 0 28 28" fill="none" xmlns="http://www.w3.org/2000/svg">
<path d="M26 0H1.99375C0.89375 0 0 0.90625 0 2.01875V25.9813C0 27.0938 0.89375 28 1.99375 28H26C27.1 28 28 27.0938 28 25.9813V2.01875C28 0.90625 27.1 0 26 0ZM8.4625 24H4.3125V10.6375H8.46875V24H8.4625ZM6.3875 8.8125C5.05625 8.8125 3.98125 7.73125 3.98125 6.40625C3.98125 5.08125 5.05625 4 6.3875 4C7.7125 4 8.79375 5.08125 8.79375 6.40625C8.79375 7.7375 7.71875 8.8125 6.3875 8.8125ZM24.0187 24H19.8687V17.5C19.8687 15.95 19.8375 13.9563 17.7125 13.9563C15.55 13.9563 15.2188 15.6438 15.2188 17.3875V24H11.0688V10.6375H15.05V12.4625H15.1062C15.6625 11.4125 17.0188 10.3062 19.0375 10.3062C23.2375 10.3062 24.0187 13.075 24.0187 16.675V24Z" fill="#6158EF"/>
</svg>
