<svg width="32" height="32" viewBox="0 0 32 32" fill="none" xmlns="http://www.w3.org/2000/svg">
<path d="M28 15.3333C28.0046 17.0931 27.5934 18.8292 26.8 20.4C25.8592 22.2823 24.413 23.8655 22.6233 24.9724C20.8335 26.0792 18.771 26.6658 16.6667 26.6666C14.9068 26.6712 13.1708 26.2601 11.6 25.4666L4 28L6.53333 20.4C5.73991 18.8292 5.32875 17.0931 5.33333 15.3333C5.33415 13.229 5.92082 11.1664 7.02763 9.37671C8.13444 7.58698 9.71767 6.14073 11.6 5.19998C13.1708 4.40655 14.9068 3.99539 16.6667 3.99998H17.3333C20.1125 4.1533 22.7374 5.32633 24.7055 7.29446C26.6737 9.26259 27.8467 11.8875 28 14.6666V15.3333Z" stroke="#524BCB" stroke-width="2" stroke-linecap="round" stroke-linejoin="round"/>
</svg>
