<svg width="28" height="28" viewBox="0 0 28 28" fill="none" xmlns="http://www.w3.org/2000/svg">
<path d="M23.8062 4.06875C21.1875 1.44375 17.7 0 13.9937 0C6.34375 0 0.11875 6.225 0.11875 13.875C0.11875 16.3188 0.75625 18.7062 1.96875 20.8125L0 28L7.35625 26.0688C9.38125 27.175 11.6625 27.7563 13.9875 27.7563H13.9937C21.6375 27.7563 28 21.5312 28 13.8813C28 10.175 26.425 6.69375 23.8062 4.06875ZM13.9937 25.4188C11.9187 25.4188 9.8875 24.8625 8.11875 23.8125L7.7 23.5625L3.3375 24.7062L4.5 20.45L4.225 20.0125C3.06875 18.175 2.4625 16.0562 2.4625 13.875C2.4625 7.51875 7.6375 2.34375 14 2.34375C17.0812 2.34375 19.975 3.54375 22.15 5.725C24.325 7.90625 25.6625 10.8 25.6562 13.8813C25.6562 20.2438 20.35 25.4188 13.9937 25.4188ZM20.3188 16.7812C19.975 16.6063 18.2688 15.7688 17.95 15.6562C17.6313 15.5375 17.4 15.4812 17.1688 15.8312C16.9375 16.1812 16.275 16.9563 16.0688 17.1938C15.8688 17.425 15.6625 17.4562 15.3188 17.2812C13.2812 16.2625 11.9438 15.4625 10.6 13.1562C10.2438 12.5437 10.9562 12.5875 11.6187 11.2625C11.7312 11.0312 11.675 10.8313 11.5875 10.6562C11.5 10.4812 10.8063 8.775 10.5188 8.08125C10.2375 7.40625 9.95 7.5 9.7375 7.4875C9.5375 7.475 9.30625 7.475 9.075 7.475C8.84375 7.475 8.46875 7.5625 8.15 7.90625C7.83125 8.25625 6.9375 9.09375 6.9375 10.8C6.9375 12.5063 8.18125 14.1563 8.35 14.3875C8.525 14.6188 10.7937 18.1187 14.275 19.625C16.475 20.575 17.3375 20.6562 18.4375 20.4937C19.1063 20.3937 20.4875 19.6562 20.775 18.8438C21.0625 18.0312 21.0625 17.3375 20.975 17.1938C20.8938 17.0375 20.6625 16.95 20.3188 16.7812Z" fill="#6158EF"/>
</svg>
