<svg width="151" height="28" viewBox="0 0 151 28" fill="none" xmlns="http://www.w3.org/2000/svg">
<path d="M7.756 2.58C6.804 2.58 6.12267 2.72933 5.712 3.028C5.30133 3.308 5.096 3.79333 5.096 4.484V11.176C5.096 12.128 4.928 12.8187 4.592 13.248C4.256 13.6587 3.724 13.9853 2.996 14.228C3.74267 14.4893 4.27467 14.816 4.592 15.208C4.928 15.6 5.096 16.272 5.096 17.224V23.916C5.096 24.6067 5.30133 25.092 5.712 25.372C6.12267 25.6707 6.804 25.82 7.756 25.82V27.808C5.88933 27.808 4.57333 27.4813 3.808 26.828C3.04267 26.1933 2.66 25.1293 2.66 23.636V17.42C2.66 16.636 2.51067 16.0853 2.212 15.768C1.932 15.4507 1.428 15.292 0.7 15.292V13.164C1.428 13.164 1.932 12.996 2.212 12.66C2.51067 12.324 2.66 11.764 2.66 10.98V4.764C2.66 3.27067 3.04267 2.20667 3.808 1.572C4.57333 0.918666 5.88933 0.591999 7.756 0.591999V2.58ZM143.83 0.591999C145.697 0.591999 147.013 0.918666 147.778 1.572C148.544 2.20667 148.926 3.27067 148.926 4.764V10.98C148.926 11.764 149.066 12.324 149.346 12.66C149.645 12.996 150.158 13.164 150.886 13.164V15.292C150.158 15.292 149.645 15.4507 149.346 15.768C149.066 16.0853 148.926 16.636 148.926 17.42V23.636C148.926 25.1293 148.544 26.1933 147.778 26.828C147.013 27.4813 145.697 27.808 143.83 27.808V25.82C144.782 25.82 145.464 25.6707 145.874 25.372C146.285 25.092 146.49 24.6067 146.49 23.916V17.224C146.49 16.272 146.649 15.6 146.966 15.208C147.302 14.816 147.844 14.4893 148.59 14.228C147.862 13.9853 147.33 13.6587 146.994 13.248C146.658 12.8187 146.49 12.128 146.49 11.176V4.484C146.49 3.79333 146.285 3.308 145.874 3.028C145.464 2.72933 144.782 2.58 143.83 2.58V0.591999Z" fill="#5951E3"/>
<path d="M23.1074 3.308V24H20.8394L20.5874 21.956C20.1021 22.7027 19.4954 23.2907 18.7674 23.72C18.0394 24.1307 17.2274 24.336 16.3314 24.336C14.5768 24.336 13.2048 23.6453 12.2154 22.264C11.2448 20.8827 10.7594 19.0253 10.7594 16.692C10.7594 15.18 10.9928 13.836 11.4594 12.66C11.9261 11.484 12.5981 10.5693 13.4754 9.916C14.3528 9.244 15.3794 8.908 16.5554 8.908C18.0674 8.908 19.3928 9.51467 20.5314 10.728V3L23.1074 3.308ZM16.8914 22.292C17.6754 22.292 18.3474 22.1147 18.9074 21.76C19.4674 21.3867 20.0088 20.836 20.5314 20.108V12.884C20.0461 12.2493 19.5234 11.7733 18.9634 11.456C18.4221 11.12 17.8061 10.952 17.1154 10.952C15.9768 10.952 15.0901 11.428 14.4554 12.38C13.8394 13.332 13.5314 14.7507 13.5314 16.636C13.5314 18.54 13.8208 19.9587 14.3994 20.892C14.9781 21.8253 15.8088 22.292 16.8914 22.292ZM39.5618 16.188C39.5618 16.6173 39.5431 17.056 39.5058 17.504H30.0978C30.2098 19.128 30.6205 20.3227 31.3298 21.088C32.0391 21.8533 32.9538 22.236 34.0738 22.236C34.7831 22.236 35.4365 22.1333 36.0338 21.928C36.6311 21.7227 37.2565 21.396 37.9098 20.948L39.0298 22.488C37.4618 23.72 35.7445 24.336 33.8778 24.336C31.8245 24.336 30.2191 23.664 29.0618 22.32C27.9231 20.976 27.3538 19.128 27.3538 16.776C27.3538 15.2453 27.5965 13.892 28.0818 12.716C28.5858 11.5213 29.2951 10.588 30.2098 9.916C31.1431 9.244 32.2351 8.908 33.4858 8.908C35.4458 8.908 36.9485 9.552 37.9938 10.84C39.0391 12.128 39.5618 13.9107 39.5618 16.188ZM37.0138 15.432C37.0138 13.976 36.7245 12.8653 36.1458 12.1C35.5671 11.3347 34.6991 10.952 33.5418 10.952C31.4325 10.952 30.2845 12.5013 30.0978 15.6H37.0138V15.432ZM54.4023 9.244L49.3903 24H46.2823L41.1863 9.244H43.9863L47.8503 21.704L51.6863 9.244H54.4023ZM64.0955 8.908C65.7755 8.908 67.1102 9.58933 68.0995 10.952C69.0888 12.296 69.5835 14.1813 69.5835 16.608C69.5835 18.1387 69.3502 19.492 68.8835 20.668C68.4168 21.8253 67.7448 22.7307 66.8675 23.384C65.9902 24.0187 64.9635 24.336 63.7875 24.336C62.2382 24.336 60.9315 23.6827 59.8675 22.376L59.6155 24H57.3475V3.308L59.9235 3V11.092C60.9875 9.636 62.3782 8.908 64.0955 8.908ZM63.1715 22.292C64.3102 22.292 65.1968 21.8347 65.8315 20.92C66.4848 19.9867 66.8115 18.5493 66.8115 16.608C66.8115 14.6107 66.5128 13.1733 65.9155 12.296C65.3182 11.4 64.4688 10.952 63.3675 10.952C62.0608 10.952 60.9128 11.7173 59.9235 13.248V20.304C60.3155 20.92 60.7915 21.4053 61.3515 21.76C61.9302 22.1147 62.5368 22.292 63.1715 22.292ZM85.1165 16.188C85.1165 16.6173 85.0978 17.056 85.0605 17.504H75.6525C75.7645 19.128 76.1752 20.3227 76.8845 21.088C77.5938 21.8533 78.5085 22.236 79.6285 22.236C80.3378 22.236 80.9912 22.1333 81.5885 21.928C82.1858 21.7227 82.8112 21.396 83.4645 20.948L84.5845 22.488C83.0165 23.72 81.2992 24.336 79.4325 24.336C77.3792 24.336 75.7738 23.664 74.6165 22.32C73.4778 20.976 72.9085 19.128 72.9085 16.776C72.9085 15.2453 73.1512 13.892 73.6365 12.716C74.1405 11.5213 74.8498 10.588 75.7645 9.916C76.6978 9.244 77.7898 8.908 79.0405 8.908C81.0005 8.908 82.5032 9.552 83.5485 10.84C84.5938 12.128 85.1165 13.9107 85.1165 16.188ZM82.5685 15.432C82.5685 13.976 82.2792 12.8653 81.7005 12.1C81.1218 11.3347 80.2538 10.952 79.0965 10.952C76.9872 10.952 75.8392 12.5013 75.6525 15.6H82.5685V15.432ZM98.8969 20.556C98.8969 21.1533 98.9995 21.6013 99.2049 21.9C99.4102 22.18 99.7182 22.3947 100.129 22.544L99.5409 24.336C98.7755 24.2427 98.1595 24.028 97.6929 23.692C97.2262 23.356 96.8809 22.8333 96.6569 22.124C95.6675 23.5987 94.2022 24.336 92.2609 24.336C90.8049 24.336 89.6569 23.9253 88.8169 23.104C87.9769 22.2827 87.5569 21.2093 87.5569 19.884C87.5569 18.316 88.1169 17.112 89.2369 16.272C90.3755 15.432 91.9809 15.012 94.0529 15.012H96.3209V13.92C96.3209 12.8747 96.0689 12.128 95.5649 11.68C95.0609 11.232 94.2862 11.008 93.2409 11.008C92.1582 11.008 90.8329 11.2693 89.2649 11.792L88.6209 9.916C90.4502 9.244 92.1489 8.908 93.7169 8.908C95.4529 8.908 96.7502 9.33733 97.6089 10.196C98.4675 11.036 98.8969 12.24 98.8969 13.808V20.556ZM92.8489 22.404C94.3235 22.404 95.4809 21.6387 96.3209 20.108V16.72H94.3889C91.6635 16.72 90.3009 17.728 90.3009 19.744C90.3009 20.6213 90.5155 21.284 90.9449 21.732C91.3742 22.18 92.0089 22.404 92.8489 22.404ZM111.635 23.328C110.665 24 109.563 24.336 108.331 24.336C107.081 24.336 106.101 23.9813 105.391 23.272C104.701 22.544 104.355 21.4987 104.355 20.136V11.232H101.779V9.244H104.355V5.912L106.931 5.604V9.244H110.431L110.151 11.232H106.931V20.024C106.931 20.7893 107.062 21.3493 107.323 21.704C107.603 22.04 108.061 22.208 108.695 22.208C109.274 22.208 109.927 22.012 110.655 21.62L111.635 23.328ZM120.717 8.908C121.239 8.908 121.725 8.964 122.173 9.076L121.697 11.596C121.249 11.484 120.819 11.428 120.409 11.428C119.494 11.428 118.757 11.764 118.197 12.436C117.637 13.108 117.198 14.1533 116.881 15.572V24H114.305V9.244H116.517L116.769 12.24C117.161 11.1387 117.693 10.308 118.365 9.748C119.037 9.188 119.821 8.908 120.717 8.908ZM127.681 9.244V24H125.105V9.244H127.681ZM126.365 2.16C126.907 2.16 127.345 2.328 127.681 2.664C128.017 3 128.185 3.42 128.185 3.924C128.185 4.428 128.017 4.848 127.681 5.184C127.345 5.50133 126.907 5.66 126.365 5.66C125.843 5.66 125.413 5.50133 125.077 5.184C124.741 4.848 124.573 4.428 124.573 3.924C124.573 3.42 124.741 3 125.077 2.664C125.413 2.328 125.843 2.16 126.365 2.16ZM141.66 9.244V11.204L133.96 21.844H141.744L141.436 24H131.048V22.068L138.72 11.428H131.692V9.244H141.66Z" fill="white"/>
</svg>
